<?xml version="1.0" encoding="UTF-8"?><svg id="a" xmlns="http://www.w3.org/2000/svg" viewBox="0 0 133.9 141.7"><defs><style>.b{fill:none;stroke:#76b900;stroke-miterlimit:10;stroke-width:4px;}</style></defs><path class="b" d="M107.3,119.3l-40.3,20.2-40.3-20.2L2.4,34.5,67,2.3l64.6,32.3-24.2,84.7Z"/><path class="b" d="M77.5,32.7l1.3,22c0,1.1-1.1,1.8-2,1.2l-10.3-6.4c-.6-.4-.8-1.1-.5-1.8l8.7-15.7c.7-1.3,2.7-.9,2.8.6Z"/><path class="b" d="M60.3,103.1c-1.3,0-2.6-.5-3.5-1.5-2.1-2.2-5.7-6.2-6.5-8.3s-.3-2.7-.2-4.2,1-2,2.1-2h12.6c1.5,0,2.8,1.1,3.1,2.5l1.9,10c.3,1.8-1,3.4-2.8,3.4h-6.7Z"/><path class="b" d="M64.5,80.9h-12.5c-1.5,0-2.9-.5-4.1-1.4-3.1-2.4-8.8-7.9-9.8-15.1-.4-3.1,0-19.7,3.4-27.6,3.6-8.1,9.5-13.8,17.5-16.8,2-.8,4,1.2,3.2,3.2-2.6,6.9-6.6,19.5-4,26.5,1.6,4.3,10.3,9.8,15.7,12.9s3,4.3,1.6,6.6l-5.8,8.9c-1.1,1.8-3.1,2.8-5.2,2.8Z"/><path class="b" d="M84.6,120h-9.6c-1,0-2-.4-2.6-1.2l-7.2-8.3c-.2-.2,0-.5.2-.5h7.6c1.5,0,2-4.1,2.4-5.9s1-1,1.6-.7l8.8,6c.8.5,1.3,1.4,1.3,2.4v5.7c0,1.3-1.1,2.4-2.4,2.4Z"/></svg>